<svg width="16" height="24" viewBox="0 0 16 24" fill="none" xmlns="http://www.w3.org/2000/svg">
<path fill-rule="evenodd" clip-rule="evenodd" d="M8.58465 22.7533L8 23.3276L7.41535 22.7533C2.49894 17.9237 0 13.7068 0 10C0 4.75066 3.64182 1 8 1C12.3582 1 16 4.75066 16 10C16 13.7068 13.5011 17.9237 8.58465 22.7533ZM1.77778 10C1.77778 12.8492 3.8281 16.4335 8 20.6634C12.1719 16.4335 14.2222 12.8492 14.2222 10C14.2222 5.8966 11.4097 3 8 3C4.59032 3 1.77778 5.8966 1.77778 10ZM8.88889 13H7.11111C7.11111 11.2984 7.66629 10.5697 8.93581 9.85557C9.66629 9.44468 9.77778 9.29835 9.77778 8.5C9.77778 7.55641 9.13525 7 8 7C7.01816 7 6.22222 7.89543 6.22222 9H4.44444C4.44444 6.79086 6.03632 5 8 5C10.0305 5 11.5556 6.32063 11.5556 8.5C11.5556 10.2016 11.0004 10.9303 9.73086 11.6444C9.00037 12.0553 8.88889 12.2016 8.88889 13ZM8.00029 15.9983C7.50921 15.9983 7.11111 15.5506 7.11111 14.9983C7.11111 14.4461 7.50921 13.9983 8.00029 13.9983C8.49137 13.9983 8.88947 14.4461 8.88947 14.9983C8.88947 15.5506 8.49137 15.9983 8.00029 15.9983Z" fill="white"/>
</svg>
